<?xml version="1.0" standalone="no"?><!DOCTYPE svg PUBLIC "-//W3C//DTD SVG 1.1//EN" "http://www.w3.org/Graphics/SVG/1.1/DTD/svg11.dtd"><svg class="icon" width="200px" height="200.00px" viewBox="0 0 1024 1024" version="1.1" xmlns="http://www.w3.org/2000/svg"><path fill="#515151" d="M495.104 550.4c-162.304 0-294.4 88.576-294.4 198.144 0 37.376 25.088 51.712 98.816 62.976 57.344 8.704 124.928 8.704 197.12 8.704 73.728 0 146.432 0 198.144-8.704 72.704-11.776 97.792-25.6 97.792-62.976C792.064 638.976 657.92 550.4 495.104 550.4L495.104 550.4zM496.64 364.544m-160.256 0a31.3 31.3 0 1 0 320.512 0 31.3 31.3 0 1 0-320.512 0Z" /></svg>